<svg width="1001" height="987" viewBox="0 0 1001 987" fill="none" xmlns="http://www.w3.org/2000/svg">
<path d="M188.383 376.505C292.122 376.505 376.219 292.397 376.219 188.644C376.219 84.8911 292.122 0.782715 188.383 0.782715C84.6444 0.782715 0.547363 84.8911 0.547363 188.644C0.547363 292.397 84.6444 376.505 188.383 376.505Z" fill="#73B200"/>
<path d="M701.495 583.788L597.357 687.94C561.533 723.769 561.533 781.859 597.357 817.689L701.495 921.841C737.32 957.67 795.402 957.67 831.227 921.841L935.365 817.689C971.189 781.859 971.189 723.769 935.365 687.94L831.227 583.788C795.402 547.959 737.32 547.959 701.495 583.788Z" fill="#73B200"/>
<path fill-rule="evenodd" clip-rule="evenodd" d="M769.984 376.505C771.856 376.505 773.416 376.505 775.288 376.505C879.191 376.505 963.124 292.249 963.124 188.644C963.124 85.0394 879.191 0.782715 775.288 0.782715C671.385 0.782715 589.948 82.5429 587.452 184.275C583.084 408.96 417.401 573.416 194.307 574.04C192.435 574.04 190.563 574.04 188.379 574.04C187.442 574.04 186.194 574.04 185.258 574.04C184.634 574.04 184.322 574.04 183.698 574.04C81.9797 576.537 0.230469 659.857 0.230469 761.902C0.230469 863.946 84.4759 949.763 188.067 949.763C291.657 949.763 374.654 866.754 375.903 764.086C380.271 537.529 544.081 374.633 769.36 376.505H769.984Z" fill="#73B200"/>
</svg>
